<?xml version="1.0" encoding="UTF-8" standalone="no"?>
<!-- Created with Inkscape (http://www.inkscape.org/) -->

<svg
   xmlns:dc="http://purl.org/dc/elements/1.1/"
   xmlns:cc="http://creativecommons.org/ns#"
   xmlns:rdf="http://www.w3.org/1999/02/22-rdf-syntax-ns#"
   xmlns:svg="http://www.w3.org/2000/svg"
   xmlns="http://www.w3.org/2000/svg"
   xmlns:sodipodi="http://sodipodi.sourceforge.net/DTD/sodipodi-0.dtd"
   xmlns:inkscape="http://www.inkscape.org/namespaces/inkscape"
   version="1.1"
   id="svg4560"
   width="731"
   height="749"
   viewBox="0 0 731 749"
   sodipodi:docname="uff.svg"
   inkscape:version="0.92.2 (5c3e80d, 2017-08-06)"
   inkscape:export-filename="C:\Users\Daniel\Documents\Facul\ESII\war-uff\assets\uff.svg.png.png"
   inkscape:export-xdpi="96"
   inkscape:export-ydpi="96">
  <metadata
     id="metadata4566">
    <rdf:RDF>
      <cc:Work
         rdf:about="">
        <dc:format>image/svg+xml</dc:format>
        <dc:type
           rdf:resource="http://purl.org/dc/dcmitype/StillImage" />
        <dc:title />
      </cc:Work>
    </rdf:RDF>
  </metadata>
  <defs
     id="defs4564" />
  <sodipodi:namedview
     pagecolor="#ffffff"
     bordercolor="#666666"
     borderopacity="1"
     objecttolerance="10"
     gridtolerance="10"
     guidetolerance="10"
     inkscape:pageopacity="0"
     inkscape:pageshadow="2"
     inkscape:window-width="1360"
     inkscape:window-height="706"
     id="namedview4562"
     showgrid="false"
     inkscape:zoom="0.63017356"
     inkscape:cx="404.21763"
     inkscape:cy="392.31161"
     inkscape:window-x="-8"
     inkscape:window-y="-8"
     inkscape:window-maximized="1"
     inkscape:current-layer="svg4560" />
  <path
     style="fill:#d40000;stroke:#000000;stroke-width:1px;stroke-linecap:butt;stroke-linejoin:miter;stroke-opacity:1;fill-opacity:1"
     d="m 34.911017,91.244703 83.310383,-31.737288 10.64609,57.713045 -13.4231,9.33197 -2.68058,20.19477 -85.787115,23.04729 z"
     id="path4570"
     inkscape:connector-curvature="0"
     sodipodi:nodetypes="ccccccc" />
  <path
     style="fill:#d40000;stroke:#000000;stroke-width:1px;stroke-linecap:butt;stroke-linejoin:miter;stroke-opacity:1;fill-opacity:1"
     d="m -0.7934322,267.38665 9.5211864,-27.77013 19.0423728,-30.94385 -0.793432,-38.87818 64.243943,-17.24718 -0.102465,22.18864 11.234577,55.35939 -16.562298,10.87424 -61.987486,40.69885 z"
     id="path4574"
     inkscape:connector-curvature="0"
     sodipodi:nodetypes="cccccccccc" />
  <path
     style="fill:#d40000;fill-opacity:1;stroke:#000000;stroke-width:1px;stroke-linecap:butt;stroke-linejoin:miter;stroke-opacity:1"
     d="m 69.597901,315.04071 62.508559,-15.12334 -37.232918,-33.21964 7.479208,-36.60239 -78.549784,51.57309 37.900485,31.40864 z"
     id="path4576"
     inkscape:connector-curvature="0"
     sodipodi:nodetypes="ccccccc" />
  <path
     style="fill:#d40000;stroke:#000000;stroke-width:1px;stroke-linecap:butt;stroke-linejoin:miter;stroke-opacity:1;fill-opacity:1"
     d="m 306.32855,281.09156 35.90664,-38.71185 c 0,0 31.41831,14.58708 38.1508,21.31957 6.7325,6.7325 14.58708,22.44165 14.58708,22.44165 l -41.51706,35.34561 c -15.73067,-13.4407 -31.55599,-26.76994 -47.12746,-40.39498 z"
     id="path4623"
     inkscape:connector-curvature="0"
     sodipodi:nodetypes="ccsccc" />
  <path
     style="fill:#d40000;stroke:#000000;stroke-width:1px;stroke-linecap:butt;stroke-linejoin:miter;stroke-opacity:1;fill-opacity:1"
     d="m 97.340664,204.22891 58.067776,-9.81823 22.86948,-44.70196 -14.30858,-22.84826 -35.10182,-9.64 -13.4231,9.33197 -2.68058,20.19477 -21.543172,5.80011 -0.102465,22.18864 z"
     id="path5171"
     inkscape:connector-curvature="0"
     sodipodi:nodetypes="cccccccccc" />
  <path
     style="fill:#d40000;fill-opacity:1;stroke:#000000;stroke-width:1px;stroke-linecap:butt;stroke-linejoin:miter;stroke-opacity:1"
     d="m 174.48385,228.6342 c 0,0 28.08085,16.97192 41.8175,12.25148 11.94908,-4.10616 22.1412,-30.76584 22.1412,-30.76584 l -14.62695,-55.73661 -45.53768,-4.67451 -21.02897,41.13113 z"
     id="path5173"
     inkscape:connector-curvature="0"
     sodipodi:nodetypes="csccccc" />
  <path
     style="fill:#d40000;stroke:#000000;stroke-width:1px;stroke-linecap:butt;stroke-linejoin:miter;stroke-opacity:1;fill-opacity:1"
     d="m 118.2214,59.507415 10.64609,57.713045 35.10185,9.64 31.83407,-18.56962 c 0,0 12.34291,-31.137788 12.62343,-32.25987 0.28052,-1.122083 -21.03905,-47.40799 -21.03905,-47.40799 z"
     id="path5175"
     inkscape:connector-curvature="0" />
  <path
     style="fill:#d40000;stroke:#000000;stroke-width:1px;stroke-linecap:butt;stroke-linejoin:miter;stroke-opacity:1;fill-opacity:1"
     d="m 187.38779,28.62298 c 0,0 18.23384,-8.97666 20.47801,-8.97666 2.24416,0 46.28591,-8.135099 46.28591,-8.135099 L 293.98564,2.5345604 312.5,46.856822 v 1.402604 l -1.12208,28.332585 -32.5404,18.794883 -55.02192,58.996336 -45.53768,-4.67451 -14.30858,-22.84826 31.83407,-18.56963 12.70559,-32.506348 z"
     id="path5177"
     inkscape:connector-curvature="0"
     sodipodi:nodetypes="cscccccccccccc" />
  <path
     style="fill:#d40000;stroke:#000000;stroke-width:1px;stroke-linecap:butt;stroke-linejoin:miter;stroke-opacity:1;fill-opacity:1"
     d="M 293.98564,2.5345604 312.5,-0.27064609 367.48205,11.791742 401.42504,31.989228 385.99641,74.628366 326.52603,68.456912 311.37792,76.592011 312.5,46.856822 Z"
     id="path5179"
     inkscape:connector-curvature="0"
     sodipodi:nodetypes="ccccccccc" />
  <path
     style="fill:#008000;stroke:#000000;stroke-width:1px;stroke-linecap:butt;stroke-linejoin:miter;stroke-opacity:1;fill-opacity:1"
     d="m 472.39677,308.58259 53.85996,-44.32227 37.58977,44.32227 -52.73788,43.20018 z"
     id="path5205"
     inkscape:connector-curvature="0" />
  <path
     style="fill:#ffff00;stroke:#000000;stroke-width:1px;stroke-linecap:butt;stroke-linejoin:miter;stroke-opacity:1;fill-opacity:0.94509804"
     d="m 422.46409,494.84829 12.90395,24.12478 65.64183,-39.27289 -21.88061,-33.66248 z"
     id="path5207"
     inkscape:connector-curvature="0" />
  <path
     style="fill:#ffff00;stroke:#000000;stroke-width:1px;stroke-linecap:butt;stroke-linejoin:miter;stroke-opacity:1;fill-opacity:0.94509804"
     d="m 543.64901,503.26391 24.68582,-17.95332 34.22352,5.04937 19.0754,33.66248 -2.8052,40.39497 -46.00539,-6.73249 z"
     id="path5209"
     inkscape:connector-curvature="0" />
  <path
     style="fill:#ffff00;stroke:#000000;stroke-width:1px;stroke-linecap:butt;stroke-linejoin:miter;stroke-opacity:1;fill-opacity:0.94509804"
     d="m 557.114,630.62029 8.41562,-7.29354 28.05207,-2.24416 12.34291,-2.80521 -11.78187,65.08079 -37.58977,7.29354 -12.34291,-8.41562 -0.56104,-10.09875 14.58708,-9.5377 z"
     id="path5211"
     inkscape:connector-curvature="0" />
  <path
     style="fill:#ffff00;stroke:#000000;stroke-width:1px;stroke-linecap:butt;stroke-linejoin:miter;stroke-opacity:1;fill-opacity:0.94509804"
     d="m 681.66517,649.13465 c 0.56104,-2.24417 2.80521,-43.76122 2.80521,-43.76122 l 29.17414,3.92729 -2.24416,42.63914 z"
     id="path5213"
     inkscape:connector-curvature="0" />
  <path
     style="fill:#008000;stroke:#000000;stroke-width:1px;stroke-linecap:butt;stroke-linejoin:miter;stroke-opacity:1;fill-opacity:1"
     d="m 515.03591,130.17145 -2.24417,46.00539 8.97666,16.83124 69.00808,-6.7325 4.62859,-43.05992 -14.16629,-22.02087 z"
     id="path5215"
     inkscape:connector-curvature="0"
     sodipodi:nodetypes="ccccccc" />
  <path
     style="fill:#008000;stroke:#000000;stroke-width:1px;stroke-linecap:butt;stroke-linejoin:miter;stroke-opacity:1;fill-opacity:1"
     d="m 581.23878,121.19479 -6.17146,-20.19748 71.81329,-17.392283 32.54039,54.982043 -47.68851,26.92999 -39.27289,5.61041 2.94547,-27.91181 z"
     id="path5217"
     inkscape:connector-curvature="0" />
  <path
     style="fill:#008000;stroke:#000000;stroke-width:1px;stroke-linecap:butt;stroke-linejoin:miter;stroke-opacity:1;fill-opacity:1"
     d="m 521.7684,193.00808 24.90639,43.43472 80.93008,-5.95075 -5.15731,-63.87129 -29.98796,4.50671 -1.68312,15.14811 z"
     id="path5219"
     inkscape:connector-curvature="0" />
  <path
     style="fill:#008000;stroke:#000000;stroke-width:1px;stroke-linecap:butt;stroke-linejoin:miter;stroke-opacity:1;fill-opacity:1"
     d="m 679.421,138.58707 -47.68851,26.92999 -9.28493,1.1037 3.33806,39.92807 47.04489,17.19905 13.48835,5.15731 44.4322,-34.91102 -39.27489,-52.36652 z"
     id="path5223"
     inkscape:connector-curvature="0"
     sodipodi:nodetypes="ccccccccc" />
  <path
     style="fill:#008000;stroke:#000000;stroke-width:1px;stroke-linecap:butt;stroke-linejoin:miter;stroke-opacity:1;fill-opacity:1"
     d="m 546.67479,236.4428 19.97692,36.79418 75.17953,6.17146 23.56373,-6.7325 -8.97666,-55.54308 -30.63269,-10.58403 1.81925,23.94322 z"
     id="path5225"
     inkscape:connector-curvature="0"
     sodipodi:nodetypes="cccccccc" />
  <path
     style="fill:#00559b;stroke:#000000;stroke-width:1px;stroke-linecap:butt;stroke-linejoin:miter;stroke-opacity:1;fill-opacity:1"
     d="m 267.05566,497.09246 32.54039,-29.17415 51.05476,65.08079 -52.73788,50.49372 -17.39228,6.17145 -7.29354,-41.51705 19.63644,-18.51437 z"
     id="path5227"
     inkscape:connector-curvature="0"
     sodipodi:nodetypes="cccccccc" />
  <path
     style="fill:#00559b;stroke:#000000;stroke-width:1px;stroke-linecap:butt;stroke-linejoin:miter;stroke-opacity:1;fill-opacity:1"
     d="m 274.34919,559.36804 -65.64183,23.0027 6.7325,35.3456 7.85457,12.90395 30.85728,-23.56374 26.36894,-17.39228 z"
     id="path5229"
     inkscape:connector-curvature="0" />
  <path
     style="fill:#00559b;stroke:#000000;stroke-width:1px;stroke-linecap:butt;stroke-linejoin:miter;stroke-opacity:1;fill-opacity:1"
     d="m 144.18761,518.41203 37.02873,66.76391 27.49102,-2.8052 65.64183,-23.0027 -1.12208,-11.22082 19.63644,-18.51437 -25.80789,-32.54039 -70.69121,23.00269 -43.15446,-3.03759 z"
     id="path5231"
     inkscape:connector-curvature="0"
     sodipodi:nodetypes="cccccccccc" />
  <path
     style="fill:#00559b;fill-opacity:1;stroke:#000000;stroke-width:1px;stroke-linecap:butt;stroke-linejoin:miter;stroke-opacity:1"
     d="m 257.51795,750.68312 65.64183,-27.49102 -15.14811,-19.0754 c 0,0 -27.49102,-11.22083 -29.73519,-16.83124 -2.24416,-5.61042 -17.95332,-20.19749 -17.95332,-20.19749 l -84.71724,51.05476 10.65979,6.17145 z"
     id="path5235"
     inkscape:connector-curvature="0"
     sodipodi:nodetypes="cccccccc" />
  <path
     style="fill:#00559b;fill-opacity:1;stroke:#000000;stroke-width:1px;stroke-linecap:butt;stroke-linejoin:miter;stroke-opacity:1"
     d="m 215.43986,617.71634 -104.91473,42.07809 65.08079,58.3483 84.71724,-51.05476 -21.31957,-16.83124 -15.70916,-19.63644 z"
     id="path5237"
     inkscape:connector-curvature="0"
     sodipodi:nodetypes="ccccccc" />
  <path
     style="fill:#00559b;stroke:#000000;stroke-width:1px;stroke-linecap:butt;stroke-linejoin:miter;stroke-opacity:1;fill-opacity:1"
     d="M 110.52513,659.79443 83.310381,638.71292 68.23517,610.14936 l 100.07722,-48.25663 12.90395,23.28321 27.49102,-2.8052 6.7325,35.3456 z"
     id="path5241"
     inkscape:connector-curvature="0" />
  <path
     style="fill:#00559b;stroke:#000000;stroke-width:1px;stroke-linecap:butt;stroke-linejoin:miter;stroke-opacity:1;fill-opacity:1"
     d="m 25.246858,570.58887 42.988312,39.56049 61.92641,-29.46175 c 0,0 -39.833932,-54.421 -42.078097,-54.421 -2.244165,0 -66.202873,2.24416 -66.202873,2.24416 z"
     id="path5243"
     inkscape:connector-curvature="0" />
  <path
     style="fill:#00559b;stroke:#000000;stroke-width:1px;stroke-linecap:butt;stroke-linejoin:miter;stroke-opacity:1;fill-opacity:1"
     d="M 21.88061,528.51077 0,480.26122 c 0,0 25.246858,-17.39228 31.979354,-17.95332 6.732495,-0.56104 56.66517,-7.29354 56.66517,-7.29354 l 20.758526,26.36894 -25.807897,20.75853 4.67418,24.10208 z"
     id="path5245"
     inkscape:connector-curvature="0" />
  <path
     style="fill:#00559b;stroke:#000000;stroke-width:1px;stroke-linecap:butt;stroke-linejoin:miter;stroke-opacity:1;fill-opacity:1"
     d="m 109.40305,481.3833 -25.807897,20.75853 4.67418,24.10208 41.892247,54.4437 38.15081,-18.79488 -24.12478,-43.4807 z"
     id="path5247"
     inkscape:connector-curvature="0" />
  <path
     style="fill:none;stroke:#000000;stroke-width:1;stroke-linecap:butt;stroke-linejoin:miter;stroke-opacity:1;stroke-miterlimit:4;stroke-dasharray:8,4;stroke-dashoffset:0"
     d="M 52.168168,459.5956 C 41.456833,414.36996 32.558914,354.0069 61.703451,313.07707"
     id="path839"
     inkscape:connector-curvature="0"
     sodipodi:nodetypes="cc" />
  <path
     style="fill:none;stroke:#000000;stroke-width:1;stroke-linecap:butt;stroke-linejoin:miter;stroke-miterlimit:4;stroke-dasharray:8, 4;stroke-dashoffset:0;stroke-opacity:1"
     d="m 330.38581,253.42742 c -30.17925,-24.5014 -55.98282,-40.2651 -95.32304,-35.29622"
     id="path839-8"
     inkscape:connector-curvature="0"
     sodipodi:nodetypes="cc" />
  <path
     style="fill:none;stroke:#000000;stroke-width:1;stroke-linecap:butt;stroke-linejoin:miter;stroke-miterlimit:4;stroke-dasharray:8, 4;stroke-dashoffset:0;stroke-opacity:1"
     d="m 332.68451,304.44171 c -20.01033,40.98455 -33.15353,106.59472 -33.08846,163.4766"
     id="path839-8-8"
     inkscape:connector-curvature="0"
     sodipodi:nodetypes="cc" />
  <path
     style="fill:none;stroke:#000000;stroke-width:1;stroke-linecap:butt;stroke-linejoin:miter;stroke-miterlimit:4;stroke-dasharray:8, 4;stroke-dashoffset:0;stroke-opacity:1"
     d="m 513.19955,154.50342 c -64.96381,12.52733 -121.99318,61.51576 -144.50216,101.2692"
     id="path839-8-2"
     inkscape:connector-curvature="0"
     sodipodi:nodetypes="cc" />
  <path
     style="fill:none;stroke:#000000;stroke-width:1;stroke-linecap:butt;stroke-linejoin:miter;stroke-miterlimit:4;stroke-dasharray:8, 4;stroke-dashoffset:0;stroke-opacity:1"
     d="m 497.49039,289.15333 c -43.64424,-13.84162 -72.15376,-10.22545 -102.51732,-3.0124"
     id="path839-8-1"
     inkscape:connector-curvature="0"
     sodipodi:nodetypes="cc" />
  <path
     style="fill:none;stroke:#000000;stroke-width:1;stroke-linecap:butt;stroke-linejoin:miter;stroke-miterlimit:4;stroke-dasharray:8, 4;stroke-dashoffset:0;stroke-opacity:1"
     d="M 449.01198,472.00373 C 429.14734,417.35191 396.50042,347.23811 370.64855,306.98135"
     id="path839-8-7"
     inkscape:connector-curvature="0"
     sodipodi:nodetypes="cc" />
  <path
     style="fill:none;stroke:#000000;stroke-width:1;stroke-linecap:butt;stroke-linejoin:miter;stroke-miterlimit:4;stroke-dasharray:8, 4;stroke-dashoffset:0;stroke-opacity:1"
     d="m 490.27045,462.48254 c 18.22011,-25.29483 26.0608,-68.85615 20.83817,-110.69977"
     id="path839-8-28"
     inkscape:connector-curvature="0"
     sodipodi:nodetypes="cc" />
  <path
     style="fill:none;stroke:#000000;stroke-width:1;stroke-linecap:butt;stroke-linejoin:miter;stroke-miterlimit:4;stroke-dasharray:8, 4;stroke-dashoffset:0;stroke-opacity:1"
     d="m 588.06097,275.03419 c -10.34344,11.99648 -16.50957,15.47351 -37.60085,17.26866"
     id="path839-8-6"
     inkscape:connector-curvature="0"
     sodipodi:nodetypes="cc" />
  <path
     style="fill:none;stroke:#000000;stroke-width:1;stroke-linecap:butt;stroke-linejoin:miter;stroke-miterlimit:4;stroke-dasharray:8, 4;stroke-dashoffset:0;stroke-opacity:1"
     d="M 542.23343,126.03057 C 512.05418,101.52917 453.85048,62.62252 394.31277,51.882244"
     id="path839-8-21"
     inkscape:connector-curvature="0"
     sodipodi:nodetypes="cc" />
  <path
     style="fill:none;stroke:#000000;stroke-width:1;stroke-linecap:butt;stroke-linejoin:miter;stroke-miterlimit:4;stroke-dasharray:8, 4;stroke-dashoffset:0;stroke-opacity:1"
     d="m 543.64901,503.26391 c -20.65806,2.4753 -40.33278,-0.11638 -70.94524,-6.25555"
     id="path839-8-81"
     inkscape:connector-curvature="0"
     sodipodi:nodetypes="cc" />
  <path
     style="fill:none;stroke:#000000;stroke-width:1;stroke-linecap:butt;stroke-linejoin:miter;stroke-miterlimit:4;stroke-dasharray:8, 4;stroke-dashoffset:0;stroke-opacity:1"
     d="m 565.52962,623.32675 c 0.76461,-27.67513 1.40812,-47.60118 7.29354,-65.64183"
     id="path839-8-67"
     inkscape:connector-curvature="0"
     sodipodi:nodetypes="cc" />
  <path
     style="fill:none;stroke:#000000;stroke-width:1;stroke-linecap:butt;stroke-linejoin:miter;stroke-miterlimit:4;stroke-dasharray:8, 4;stroke-dashoffset:0;stroke-opacity:1"
     d="M 684.47038,605.37343 C 666.98605,585.63262 646.83533,566.24946 620.19002,547.41537"
     id="path839-8-5"
     inkscape:connector-curvature="0"
     sodipodi:nodetypes="cc" />
  <path
     style="fill:none;stroke:#000000;stroke-width:1;stroke-linecap:butt;stroke-linejoin:miter;stroke-miterlimit:4;stroke-dasharray:8, 4;stroke-dashoffset:0;stroke-opacity:1"
     d="m 681.66517,649.13465 c -32.03425,6.59097 -44.35929,9.0732 -83.69951,14.04208"
     id="path839-8-3"
     inkscape:connector-curvature="0"
     sodipodi:nodetypes="cc" />
  <path
     style="fill:none;stroke:#000000;stroke-width:1;stroke-linecap:butt;stroke-linejoin:miter;stroke-miterlimit:4;stroke-dasharray:8, 4;stroke-dashoffset:0;stroke-opacity:1"
     d="m 544.21005,682.23609 c -59.3534,15.89357 -178.3438,19.1559 -236.19838,21.88061"
     id="path839-8-4"
     inkscape:connector-curvature="0"
     sodipodi:nodetypes="cc" />
  <path
     style="fill:none;fill-opacity:1;stroke:#ffd100;stroke-width:7;stroke-linecap:butt;stroke-linejoin:miter;stroke-miterlimit:4;stroke-dasharray:none;stroke-opacity:1;paint-order:normal"
     d="m 647.35254,79.154199 c -25.79076,6.24934 -51.58285,12.49427 -77.375,18.73828 2.01458,6.584791 4.02579,13.170631 6.03906,19.755841 -21.61713,2.93203 -43.23469,5.86096 -64.85156,8.79492 -0.41696,17.11157 -2.43003,34.3612 -1.92383,51.40625 17.71029,33.31668 37.51189,65.47868 54.88477,98.98047 26.25772,1.99152 52.52245,4.64258 78.78125,6.21094 8.99349,-2.56966 17.98697,-5.13936 26.98047,-7.70898 -2.7827,-17.22144 -5.56649,-34.4427 -8.34961,-51.66407 8.51927,3.08873 16.98971,6.30993 25.44531,9.56836 16.43117,-12.90862 32.86138,-25.81847 49.29297,-38.72656 -14.42537,-18.81249 -28.23835,-38.48525 -43.03906,-56.76953 -5.30223,-1.64732 -12.9413,-1.33706 -14.38629,-8.14768 C 668.83129,112.66318 658.812,95.733679 648.79199,78.804589 l -0.97175,0.23602 z"
     id="path5225-9"
     inkscape:connector-curvature="0" />
  <path
     style="fill:none;fill-opacity:1;stroke:#ffd100;stroke-width:7;stroke-linecap:butt;stroke-linejoin:miter;stroke-miterlimit:4;stroke-dasharray:none;stroke-opacity:1"
     d="m 311.91113,-4.4454115 c -33.70865,4.71257004 -66.34759,14.8429405 -99.99175,19.1185305 -14.52144,2.19811 -26.71938,11.20921 -40.24492,16.34812 -35.13392,16.36697 -70.92382,31.24388 -107.34179,44.51071 -11.06165,4.21414 -22.12393,8.42664 -33.1852,12.64178 -2.44905,29.978821 -7.21451,59.883321 -8.09738,89.999791 -0.0942,10.27941 1.62807,20.96362 -0.31864,30.9084 -8.79099,14.47357 -19.4017503,28.3525 -23.3438803,45.16083 -0.26984,5.11159 -7.59387,12.86473 -2.76088,16.06586 14.8022003,8.11559 29.3793903,16.80918 41.8410903,28.38073 8.51046,6.38672 15.67307,15.36284 25.80664,19.20508 10.80508,2.27133 20.973169,-3.94387 31.513409,-5.2956 14.884221,-3.60059 29.768251,-7.20197 44.652601,-10.80206 -13.74464,-12.26319 -27.48961,-24.52602 -41.234371,-36.78906 1.989261,-12.56944 6.476391,-25.04539 6.663951,-37.86197 -1.29979,-6.61995 -2.62684,-13.23454 -3.88466,-19.86264 17.09961,-2.89128 34.19922,-5.78256 51.29883,-8.67383 6.51576,10.99818 11.90522,22.92079 19.22461,33.30078 13.35234,7.07051 28.13047,15.62072 43.82422,12.84961 12.92737,-4.34499 18.4148,-18.28232 24.2168,-29.36133 3.00325,-5.28792 1.10108,-11.21742 -0.86497,-16.42562 -3.82106,-14.55995 -7.64211,-29.1199 -11.46316,-43.67985 18.38688,-19.20995 35.78326,-39.45587 54.82365,-57.942311 14.70891,-8.43118 29.25427,-17.18719 44.25448,-25.00298 20.45773,2.12193 40.91508,4.24753 61.37304,6.36719 5.87316,-16.2383 11.75157,-32.4747 17.625,-48.71289 -13.44892,-7.3128 -25.91434,-16.66387 -39.94029,-22.7602305 -18.15588,-3.82909 -36.23467,-8.27575 -54.44643,-11.68704 z"
     id="path4570-7"
     inkscape:connector-curvature="0" />
  <path
     style="fill:none;fill-opacity:1;stroke:#ffd100;stroke-width:7;stroke-linecap:butt;stroke-linejoin:miter;stroke-miterlimit:4;stroke-dasharray:none;stroke-opacity:1"
     d="m 340.27246,238.37098 c -13.23207,14.27144 -26.47035,28.54035 -39.70508,42.81054 17.46252,15.29914 35.21017,30.26721 52.86524,45.34375 15.51074,-13.20469 31.0222,-26.40855 46.53125,-39.61523 -6.91432,-13.79179 -14.95303,-28.80704 -29.97126,-35.10927 -9.35109,-5.26225 -19.01668,-9.93771 -28.7221,-14.50401 l -0.68066,0.7326 z"
     id="path4623-2"
     inkscape:connector-curvature="0" />
  <path
     style="fill:none;fill-opacity:1;stroke:#ffd100;stroke-width:7;stroke-linecap:butt;stroke-linejoin:miter;stroke-miterlimit:4;stroke-dasharray:none;stroke-opacity:1"
     d="m 525.21192,259.70301 c -19.53309,16.07566 -39.06807,32.14902 -58.59961,48.22656 14.68204,16.38687 29.36633,32.77173 44.04882,49.1582 19.61521,-16.06839 39.22999,-32.13731 58.84571,-48.20507 -14.25914,-16.80943 -28.51553,-33.62118 -42.77344,-50.43164 l -0.77219,0.63539 z"
     id="path5205-2"
     inkscape:connector-curvature="0" />
  <path
     style="fill:none;fill-opacity:0.94509804;stroke:#ffd100;stroke-width:7;stroke-linecap:butt;stroke-linejoin:miter;stroke-miterlimit:4;stroke-dasharray:none;stroke-opacity:1"
     d="m 478.23145,441.29676 c -20.27585,17.46638 -40.5525,34.93181 -60.82813,52.39844 5.46596,10.21554 10.92809,20.43314 16.39453,30.64843 24.26985,-14.51792 48.53821,-29.03831 72.80664,-43.55859 -8.87914,-13.66108 -17.75907,-27.32164 -26.63867,-40.98242 -0.57812,0.49805 -1.15625,0.99609 -1.73437,1.49414 z"
     id="path5207-4"
     inkscape:connector-curvature="0" />
  <path
     style="fill:none;fill-opacity:0.94509804;stroke:#ffd100;stroke-width:7;stroke-linecap:butt;stroke-linejoin:miter;stroke-miterlimit:4;stroke-dasharray:none;stroke-opacity:1"
     d="m 565.95996,481.86121 c -9.16865,6.66793 -18.33708,13.33616 -27.50586,20.00391 10.58793,19.75918 21.18112,39.51556 31.77149,59.27344 17.4327,2.54729 34.86461,5.10007 52.29687,7.65039 0.58099,-15.633 3.05021,-31.41134 2.56836,-46.95508 -6.68402,-11.79635 -13.36978,-23.59172 -20.05273,-35.38867 -12.88916,-1.12306 -26.20212,-5.30743 -39.07813,-4.58399 z"
     id="path5209-7"
     inkscape:connector-curvature="0" />
  <path
     style="fill:none;fill-opacity:0.94509804;stroke:#ffd100;stroke-width:7;stroke-linecap:butt;stroke-linejoin:miter;stroke-miterlimit:4;stroke-dasharray:none;stroke-opacity:1"
     d="m 607.96582,613.49012 c -14.48726,4.61614 -29.85096,3.82912 -44.71875,6.23633 -4.55759,4.15566 -12.66693,8.59383 -9.9668,16.08789 0.28646,8.15234 0.57292,16.30468 0.85938,24.45703 -4.92309,3.21889 -9.84687,6.43671 -14.76953,9.65625 1.15934,5.95323 -1.54231,15.1841 6.07226,17.78906 4.93859,3.80032 11.49078,8.96207 17.99414,5.45508 11.37767,-2.20734 22.75483,-4.41734 34.13282,-6.62305 4.44845,-24.57554 8.89977,-49.15056 13.3457,-73.72656 -0.98307,0.22266 -1.96615,0.44531 -2.94922,0.66797 z"
     id="path5211-9"
     inkscape:connector-curvature="0" />
  <path
     style="fill:none;fill-opacity:0.94509804;stroke:#ffd100;stroke-width:7;stroke-linecap:butt;stroke-linejoin:miter;stroke-miterlimit:4;stroke-dasharray:none;stroke-opacity:1"
     d="m 680.57324,602.77918 c -1.15948,16.48238 -1.31922,33.23572 -3.50586,49.72656 12.69487,1.19571 25.38958,2.39321 38.08399,3.59375 0.88912,-16.82861 1.77404,-33.65745 2.6582,-50.48633 -12.37299,-1.66645 -24.74612,-3.33185 -37.11914,-4.99804 -0.0391,0.72135 -0.0781,1.44271 -0.11719,2.16406 z"
     id="path5213-9"
     inkscape:connector-curvature="0" />
  <path
     style="fill:none;fill-opacity:1;stroke:#ffd100;stroke-width:7;stroke-linecap:butt;stroke-linejoin:miter;stroke-miterlimit:4;stroke-dasharray:none;stroke-opacity:1"
     d="m 88.510749,450.75574 c -20.391989,3.30279 -41.208349,4.54905 -61.412109,8.63282 -11.52252,4.94891 -21.7147203,12.37896 -32.1464903,19.2207 7.49527,17.63906 16.6566803,34.68872 23.1578503,52.6728 1.67171,13.90983 0.98202,28.55206 4.39294,42.02642 14.42726,13.99372 30.48352,26.55696 43.83007,41.50586 5.47252,9.24054 8.93256,20.04605 16.133539,28.08168 32.979721,23.85688 61.379281,53.53817 92.803961,79.473 18.07511,10.79535 38.93956,15.34977 58.22594,23.43417 8.38911,2.92459 16.83157,7.2555 25.54554,8.35685 23.54148,-9.86113 47.08449,-19.71859 70.625,-29.58203 -8.06208,-8.0298 -12.86989,-19.62197 -22.79492,-25.57031 -10.60874,-4.88134 -23.24549,-8.67583 -29.13281,-19.66797 -10.12134,-13.56152 -24.90883,-22.46091 -37.16366,-33.71392 -3.87579,-4.84341 -7.75157,-9.68681 -11.62736,-14.53022 18.60705,-13.95271 36.6121,-29.09687 57.40205,-39.51622 7.94927,-2.30837 16.58396,-5.29407 21.65195,-12.44505 16.00266,-15.32233 32.00667,-30.64327 48.0085,-45.96647 -18.63448,-23.7584 -37.27241,-47.51411 -55.9082,-71.27148 -12.49981,10.4334 -23.72828,22.6429 -36.9533,32.02663 -23.15205,7.08951 -45.88217,15.90665 -69.29178,21.80719 -15.87087,-0.64493 -32.25912,-3.64329 -48.00687,-1.99398 -5.27607,-4.10428 -8.86617,-10.16749 -14.08789,-14.46094 -14.60376,-15.00159 -28.17434,-31.22275 -40.789061,-47.85351 -0.71163,-0.49959 -1.59382,-0.76271 -2.46289,-0.66602 z"
     id="path5227-3"
     inkscape:connector-curvature="0" />
</svg>
